<svg width="24" height="24" viewBox="0 0 24 24" fill="none" xmlns="http://www.w3.org/2000/svg">
<path d="M4.22839 18.375C4.25238 18.4736 4.29588 18.5664 4.35634 18.6478C4.41679 18.7293 4.49296 18.7979 4.58036 18.8495C4.66775 18.901 4.76459 18.9345 4.86516 18.9481C4.96573 18.9616 5.06798 18.9548 5.16589 18.9281C9.63493 17.6907 14.3562 17.6907 18.8253 18.9281C18.9232 18.9548 19.0254 18.9616 19.126 18.9481C19.2266 18.9345 19.3234 18.901 19.4108 18.8495C19.4982 18.7979 19.5744 18.7293 19.6348 18.6478C19.6953 18.5664 19.7388 18.4736 19.7628 18.375L22.1534 8.22184C22.1862 8.08594 22.1804 7.94357 22.1366 7.8108C22.0928 7.67803 22.0128 7.56015 21.9055 7.47045C21.7983 7.38076 21.6681 7.32283 21.5297 7.30319C21.3912 7.28356 21.2501 7.30301 21.1221 7.35934L16.3784 9.46872C16.2065 9.5444 16.0127 9.5537 15.8343 9.49483C15.656 9.43597 15.5058 9.3131 15.4128 9.14997L12.6565 4.18122C12.5917 4.06399 12.4966 3.96628 12.3812 3.89824C12.2658 3.8302 12.1342 3.79431 12.0003 3.79431C11.8663 3.79431 11.7348 3.8302 11.6194 3.89824C11.5039 3.96628 11.4089 4.06399 11.344 4.18122L8.58776 9.14997C8.49471 9.3131 8.34451 9.43597 8.16618 9.49483C7.98784 9.5537 7.79401 9.5444 7.62214 9.46872L2.87839 7.35934C2.75043 7.30301 2.60927 7.28356 2.47085 7.30319C2.33243 7.32283 2.20225 7.38076 2.09501 7.47045C1.98776 7.56015 1.90772 7.67803 1.86393 7.8108C1.82013 7.94357 1.81431 8.08594 1.84714 8.22184L4.22839 18.375Z" stroke="#A4A9AF" stroke-linecap="round" stroke-linejoin="round"/>
<path d="M9 15.1594C10.9942 14.9438 13.0058 14.9438 15 15.1594" stroke="#A4A9AF" stroke-linecap="round" stroke-linejoin="round"/>
</svg>
