<svg width="24" height="24" viewBox="0 0 24 24" fill="none" xmlns="http://www.w3.org/2000/svg">
    <path d="M12 21C16.9706 21 21 16.9706 21 12C21 7.02944 16.9706 3 12 3C7.02944 3 3 7.02944 3 12C3 16.9706 7.02944 21 12 21Z" stroke="#5E6D84" stroke-linecap="round" stroke-linejoin="round"/>
    <path d="M9.25 10.125C9.25 10.4702 8.97018 10.75 8.625 10.75C8.27982 10.75 8 10.4702 8 10.125C8 9.77982 8.27982 9.5 8.625 9.5C8.97018 9.5 9.25 9.77982 9.25 10.125Z" fill="#5E6D84" stroke="#5E6D84"/>
    <path d="M16 10.125C16 10.4702 15.7202 10.75 15.375 10.75C15.0298 10.75 14.75 10.4702 14.75 10.125C14.75 9.77982 15.0298 9.5 15.375 9.5C15.7202 9.5 16 9.77982 16 10.125Z" fill="#5E6D84" stroke="#5E6D84"/>
    <path d="M15.9001 14.25C15.5036 14.9331 14.9347 15.5 14.2503 15.8941C13.5658 16.2882 12.7899 16.4956 12.0001 16.4956C11.2103 16.4956 10.4344 16.2882 9.74993 15.8941C9.0655 15.5 8.49658 14.9331 8.1001 14.25" stroke="#5E6D84" stroke-linecap="round" stroke-linejoin="round"/>
    </svg>
    